<svg viewBox="0 0 160 160" xmlns="http://www.w3.org/2000/svg">
    <circle cx="80" cy="80" r="80" />
    <g fill="#fff">
        <path fill-rule="evenodd" clip-rule="evenodd" d="M79.997 79.999c0 15.463-12.535 27.998-27.998 27.998C36.535 107.997 24 95.462 24 79.999 24 64.535 36.535 52 51.999 52c15.463 0 27.998 12.535 27.998 27.999Zm-21.843-17.74c.99.365 1.892.935 2.648 1.672a9.195 9.195 0 0 1 2.15 5.77v21.274l-6.679 7.207H41.16l2.965-3.23v-5.46h-.057l.057-.057v-17.24l4.449-4.828H41.94l2.298-5.62c.69 0 3.334 0 10.816.057a7.552 7.552 0 0 1 3.099.454Zm-7.696 24.13 6.045-6.367v-3.529l-6.045 6.368v3.528Zm2.436-19.01h-2.436l.08 14.068 6.046-6.368V72.16c0-1.965-.357-3.241-1.15-4.034a3.206 3.206 0 0 0-2.54-.747Zm-3.712 21.803L46.48 92.09l10.022.011V81.39l-7.321 7.793Z"/><path opacity=".75" d="m107.07 104.336 2.733-2.729v.001l6.155-6.147 2.605-2.6 12.174-12.158-3.416-3.41-6.684 6.676-2.073 2.07-3.415 3.412h-.001l-5.343 5.336-3.413 3.41 1.294 1.293-1.296-1.293-2.735 2.729c-1.33 1.329-3.723 1.616-5.342.001-1.287-1.285-1.682-3.66-.003-5.336l.002-.002 2.733-2.73v.001l4.586-4.58 4.174-4.167 12.173-12.157-3.415-3.41-12.174 12.158-5.344 5.336-3.412 3.41 3.053 3.051-3.055-3.052-2.732 2.73c-1.416 1.413-3.79 1.554-5.345 0a3.756 3.756 0 0 1 0-5.336l2.735-2.73v-.001l3.414-3.41 4.035-4.031 6.504-6.495 3.563-3.558 3.415-3.41 2.732-2.73a3.77 3.77 0 0 1 5.344 0c1.556 1.555 1.416 3.924 0 5.338l-2.733 2.73 3.416 3.41 2.732-2.73h.002c1.678-1.677 4.057-1.285 5.344.001 1.618 1.616 1.33 4.006 0 5.335l-2.734 2.73 3.413 3.41 2.734-2.729c3.456-3.45 3.288-8.871 0-12.155-2.283-2.282-4.982-2.541-6.241-2.516.048-1.262-.255-3.972-2.519-6.233-3.23-3.225-8.696-3.47-12.173 0l-2.732 2.73v-.001l-3.415 3.41-5.344 5.338-3.415 3.41-5.344 5.336h.001l-3.412 3.41 2.558 2.558-2.562-2.558-2.733 2.73c-3.477 3.471-3.23 8.931 0 12.157 2.263 2.261 4.975 2.563 6.24 2.515-.022 1.257.237 3.952 2.52 6.232 3.29 3.284 8.717 3.451 12.171 0Z"/><path opacity=".45" d="m133.471 83.361-2.733-2.729-6.154-6.146-2.605-2.602-12.173-12.156-3.415 3.41 6.685 6.676 2.072 2.07 3.417 3.41 5.343 5.337h.001l3.414 3.408 1.295-1.292-1.295 1.294 2.733 2.731c1.33 1.328 1.618 3.718.001 5.335-1.287 1.286-3.665 1.68-5.343.003l-.002-.002-2.733-2.73-4.586-4.58-4.173-4.167-12.173-12.157-3.416 3.411 12.175 12.157 5.344 5.337v-.001l3.413 3.407 3.056-3.048-3.056 3.05 2.733 2.729c1.416 1.414 1.557 3.784.001 5.338a3.77 3.77 0 0 1-5.344-.001l-2.734-2.73h-.001l-3.414-3.41-4.036-4.03-6.504-6.495-3.562-3.557-3.415-3.41-2.733-2.73a3.758 3.758 0 0 1 0-5.335c1.556-1.555 3.929-1.415 5.345 0l2.733 2.729 3.415-3.412-2.733-2.728-.001-.002c-1.68-1.675-1.286-4.051.001-5.336 1.618-1.616 4.012-1.328 5.342 0l2.735 2.73 3.414-3.409-2.733-2.73c-3.455-3.45-8.883-3.283-12.172 0-2.284 2.28-2.544 4.975-2.52 6.232-1.263-.047-3.977.255-6.24 2.516-3.23 3.226-3.476 8.684 0 12.157l2.732 2.728 3.415 3.41 5.345 5.337 3.415 3.41h-.001l5.345 5.337v-.001l3.414 3.408 2.561-2.555-2.561 2.558 2.734 2.73c3.476 3.471 8.943 3.226 12.174 0 2.263-2.26 2.565-4.969 2.517-6.232 1.259.022 3.958-.236 6.241-2.517 3.288-3.285 3.455-8.705 0-12.155Z"/>
    </g>
</svg>
