<svg xmlns="http://www.w3.org/2000/svg" viewBox="5 2.8 290 69"><circle cx="39.6" cy="37.4" r="34.3" fill="#f44b34"/><path fill="#fff" d="M50.4 17.9c-1.7-1.8-4-2.6-7-2.6-9.1-.1-12.4-.1-13.2-.1L27.3 22h8.1L30 28v21h-.1l.1.1v6.7l-3.6 4h18.5L53 51V25c0-.1.1-4.3-2.6-7.1zm-5.2 19.6-7.4 7.8V41l7.4-7.8v4.3zm-7.4-15.4h3c.9 0 2.1-.1 3.1.9s1.4 2.5 1.4 4.9v3.6l-7.4 7.8-.1-17.2zm-4.9 30.1 3.3-3.6 9-9.5v13.1c0 .1-12.3.1-12.3 0z"/><path fill="#009ad9" d="m99.645 22.637 6.505-6.506 4.172 4.172-6.505 6.506zM121 44l4.2 4.2 6.5-6.5-4.2-4.2zm-3.2-31.2c1.8-1.8 4.7-1.8 6.5 0 1.9 1.9 1.7 4.8 0 6.5l-3.3 3.3 4.2 4.2 3.3-3.3c2-2 4.9-1.6 6.5 0 2 2 1.6 4.9 0 6.5l-3.3 3.3 4.2 4.2 3.3-3.3c4.2-4.2 4-10.8 0-14.8-2.8-2.8-6.1-3.1-7.6-3.1.1-1.5-.3-4.8-3.1-7.6-3.9-3.9-10.6-4.2-14.8 0l-3.3 3.3 4.2 4.2 3.2-3.4zm-7.5 20.6 4.2 4.1L121 31l-4.2-4.1-6.5 6.5z"/><path fill="#6ebd44" d="m99.6 52.4 6.6 6.5 4.1-4.2-6.5-6.5zm36.3-14.9-4.2 4.2L135 45c1.6 1.6 2 4.5 0 6.5-1.6 1.6-4.5 2.1-6.5 0l-3.3-3.3-4.2 4.2 3.3 3.3c1.7 1.7 1.9 4.6 0 6.5-1.8 1.8-4.7 1.8-6.5 0l-3.3-3.3-4.2 4.2 3.3 3.3c4.2 4.2 10.9 3.9 14.8 0 2.8-2.8 3.1-6.1 3.1-7.6 1.5 0 4.8-.3 7.6-3.1 4-4 4.2-10.6 0-14.8l-3.2-3.4zm-25.6 4.2 6.5 6.5L121 44l-6.5-6.5zm14.9-14.8L121 31l6.5 6.5 4.2-4.1-6.5-6.5z"/><path fill="#f68f1e" d="m110.332 54.607 6.506-6.506 4.172 4.172-6.506 6.505zM102.8 62.2c-1.6 1.6-4.5 2-6.5 0-1.6-1.6-2.1-4.5 0-6.5l3.3-3.3-4.2-4.2-3.3 3.3c-1.7 1.7-4.6 1.9-6.5 0-1.8-1.8-1.8-4.7 0-6.5l3.3-3.3-4.2-4.2-3.3 3.3c-4.2 4.2-3.9 10.9 0 14.8 2.8 2.8 6.1 3.1 7.6 3.1 0 1.5.3 4.8 3.1 7.6 4 4 10.6 4.2 14.8 0l3.3-3.3-4.2-4.2-3.2 3.4zm3.4-24.7L99.6 44l4.2 4.2 6.5-6.5zM95.5 26.9 89 33.4l4.1 4.1 6.5-6.5z"/><path fill="#ec174c" d="m99.6 44-6.5-6.5-4.1 4.2 6.5 6.5zm-14-14c-1.8-1.8-1.8-4.7 0-6.5 1.9-1.9 4.8-1.7 6.5 0l3.3 3.3 4.2-4.2-3.3-3.3c-2-2-1.6-4.9 0-6.5 2-2 4.9-1.6 6.5 0l3.3 3.3 4.2-4.2-3.3-3.2c-4.2-4.2-10.8-4-14.8 0-2.8 2.8-3.1 6.1-3.1 7.6-1.5-.1-4.9.3-7.6 3.1-3.9 3.9-4.2 10.6 0 14.8l3.3 3.3 4.2-4.2-3.4-3.3zm24.73-9.682 4.172-4.172 6.505 6.505-4.172 4.172zM106.2 37.5l4.1-4.1-6.5-6.5-4.2 4.1 6.6 6.5z"/><path fill="#573357" d="m106.142 16.042 4.171-4.172 4.172 4.172-4.171 4.172z"/><path fill="#be272d" d="m84.81 37.543 4.172-4.172 4.172 4.172-4.172 4.172z"/><path fill="#008e4c" d="m127.497 37.555 4.171-4.172 4.172 4.172-4.171 4.172z"/><path fill="#7a773e" d="m106.172 58.866 4.172-4.172 4.172 4.172-4.172 4.172z"/><path fill="#443639" d="m116.856 26.74 4.172-4.172 4.172 4.172-4.172 4.172z"/><path fill="#803136" d="m95.455 48.169 4.172-4.172 4.172 4.172-4.172 4.172z"/><path fill="#593438" d="m95.446 26.753 4.172-4.172 4.172 4.173-4.172 4.171z"/><path fill="#443639" d="m106.155 37.456 4.172-4.172 4.172 4.171-4.172 4.172z"/><path fill="#2a6442" d="m116.871 48.153 4.172-4.172 4.172 4.172-4.172 4.172z"/><path d="M170.4 13.5c-2.5-2.2-5.7-3.3-9.6-3.3h-7.2v23.6h7.6c3.8 0 7-1.1 9.4-3.3s3.6-5 3.6-8.5-1.3-6.3-3.8-8.5zm.1 8.5c0 2.6-.9 4.7-2.6 6.2-1.7 1.6-4.1 2.3-7 2.3h-3.8V13.4h3.8c2.9 0 5.2.8 7 2.3 1.7 1.5 2.6 3.7 2.6 6.3zm14.6-6.3c-2.5 0-4.7.9-6.4 2.7s-2.6 4-2.6 6.6.9 4.8 2.6 6.6c1.7 1.8 3.9 2.7 6.4 2.7h.1v-.1c2.5 0 4.7-.9 6.4-2.7s2.6-4 2.6-6.6c0-2.5-.9-4.8-2.6-6.6-1.8-1.7-3.9-2.6-6.5-2.6zm4.1 13.7c-.5.6-1.1 1-1.8 1.3s-1.4.3-2.2.3c-1.7 0-3-.6-4.1-1.8-1.1-1.2-1.6-2.7-1.6-4.4 0-1.7.6-3.2 1.6-4.3 1.1-1.2 2.4-1.7 4.1-1.7 1.6 0 3 .6 4 1.7 1.1 1.2 1.6 2.6 1.6 4.3 0 1.9-.5 3.4-1.6 4.6zm16.9.8c-.5.6-1.3.9-2.3.9-1.6 0-2.4-.9-2.4-2.7v-9.2h5v-3h-5v-4.4h-3.3v4.4h-2.9l.1 3h2.9v9.3c0 1.9.5 3.3 1.4 4.3s2.2 1.5 3.9 1.5c1.8 0 3.2-.5 4.2-1.5l-1.6-2.6zm38.1-11.6c-1.5-2-3.5-3-6.1-3-2.5 0-4.5.9-6.1 2.7-1.6 1.8-2.4 4-2.4 6.6 0 2.7.8 4.9 2.5 6.6 1.7 1.8 3.7 2.7 6.1 2.7 2.6 0 4.6-1 6.1-3.1v2.6h3.4V16.1h-3.4v2.5h-.1zm-1.6 2c1.1 1.2 1.6 2.6 1.6 4.3s-.5 3.2-1.6 4.4c-.5.6-1.1 1-1.8 1.3s-1.4.4-2.2.4c-1.7 0-3-.6-4.1-1.8-1.1-1.2-1.6-2.7-1.6-4.4 0-1.7.6-3.2 1.6-4.3 1.1-1.2 2.4-1.7 4.1-1.7 1.6.1 2.9.6 4 1.8zm17.9 3.6c-.9-.3-1.9-.6-3-.9-1-.3-1.9-.6-2.5-1-.7-.4-1-1-1-1.6l.1-.1c0-.7.3-1.2.9-1.6.6-.4 1.4-.6 2.3-.6 2 0 3.4.7 4.5 2l2-2c-1.3-1.8-3.5-2.7-6.6-2.7-1.9 0-3.5.5-4.7 1.4-1.2 1-1.7 2.1-1.7 3.5 0 1.2.3 2.1 1 2.9s1.5 1.3 2.6 1.7c1.1.4 2 .7 2.9 1 1 .3 1.8.7 2.4 1.1.7.5 1 1 1 1.8s-.3 1.4-.9 1.8c-.6.5-1.4.7-2.5.7-2.3 0-4.1-.8-5.3-2.3l-2 2.2c1.5 1.9 3.9 2.9 7.1 2.9 2.2 0 3.9-.5 5.1-1.5s1.8-2.3 1.8-3.8c0-1.2-.3-2.2-1-3-.6-.9-1.5-1.4-2.5-1.9zm14.9-8.6c-2.3 0-4.1.8-5.2 2.5V8.4h-3.4v25.4h3.4l.1-10.3c0-1.4.4-2.6 1.2-3.4.8-.8 1.8-1.2 3.2-1.2 1.3 0 2.4.4 3.2 1.3.8.8 1.2 2 1.2 3.4v10.3h3.4V23c0-2.3-.6-4-1.9-5.4-1.4-1.4-3.1-2-5.2-2zm-52.2 3c-1.5-2-3.5-3-6.1-3-2.5 0-4.5.9-6.1 2.7-1.6 1.8-2.4 4-2.4 6.6 0 2.7.8 4.9 2.5 6.6 1.7 1.8 3.7 2.7 6.1 2.7 2.6 0 4.6-1 6.1-3.1v2.6h3.4V8.4h-3.4v10.2h-.1zm-1.6 2c1.1 1.2 1.6 2.6 1.6 4.3s-.5 3.2-1.6 4.4c-1.1 1.2-2.4 1.8-4 1.8-1.7 0-3-.6-4.1-1.8-1.1-1.2-1.6-2.7-1.6-4.4 0-1.7.6-3.2 1.6-4.3 1.1-1.2 2.4-1.7 4.1-1.7 1.6 0 2.9.5 4 1.7zm48.8 19.9h-3.6v19.1c0 2.4.7 4.1 2.1 5.1 1.2.9 3.1 1.4 5.6 1.4h.1v-3h-.1c-1.2 0-2.1-.2-2.7-.6-.9-.6-1.4-1.7-1.4-3.3V51h4.1v-3h-4.1v-7.5zm-96.2 7c-1.4 0-2.6.3-3.7 1-1 .6-1.7 1.5-2.3 2.6-1.2-2.4-3.2-3.6-6-3.6-2.2 0-4 .9-5.2 2.6V48h-3.5v18.2h3.5l.2-10.7c0-1.5.4-2.6 1.1-3.5.7-.9 1.8-1.3 3.1-1.3s2.3.4 3.1 1.3c.8.9 1.2 2 1.2 3.5v10.6h3.4V55.5c0-1.5.4-2.6 1.2-3.5s1.8-1.3 3.2-1.3c1.3 0 2.3.4 3.1 1.3.7.9 1.1 2 1.1 3.5v10.6h3.5V55c0-2.3-.6-4.1-1.9-5.5-1.3-1.3-3-2-5.1-2zm18.9 0c-2.5 0-4.7.9-6.4 2.8-1.7 1.9-2.6 4.1-2.6 6.8s.9 5 2.7 6.8c1.8 1.8 4.1 2.8 6.8 2.8h.1v-.1c1.4 0 2.7-.3 3.9-.7 1.2-.5 2.2-1.1 3-1.9l-1.8-2.4c-1.3 1.3-3 2-5 2-1.7 0-3.1-.5-4.2-1.6-1.1-1-1.8-2.4-2-4h14.3c.1-.3.1-.7.1-1.2 0-2.5-.9-4.7-2.6-6.5-1.6-1.8-3.8-2.8-6.3-2.8zm.1 3c1.4 0 2.6.5 3.6 1.3 1 .9 1.6 2.1 1.8 3.8h-10.8c.3-1.5.9-2.7 1.8-3.7 1-.9 2.2-1.4 3.6-1.4zm22.5-2.3c-.6-.5-1.6-.8-2.8-.8-1.9 0-3.4.9-4.5 2.6v-2H205v18.2h3.5l-.1-10.5c0-1.5.3-2.7.9-3.6.6-.9 1.5-1.3 2.6-1.3.9 0 1.7.2 2.3.7h.1l1.4-3.3zm9-.7c-2.5 0-4.7.9-6.4 2.8-1.7 1.9-2.6 4.1-2.6 6.8s.9 5 2.7 6.8c1.8 1.8 4.1 2.8 6.8 2.8h.1v-.1c1.4 0 2.7-.3 3.9-.7 1.2-.5 2.2-1.1 3-1.9l-1.8-2.4c-1.3 1.3-3 2-5 2-1.7 0-3.1-.5-4.2-1.6-1.1-1-1.8-2.4-2-4h14.3c.1-.3.1-.7.1-1.2 0-2.5-.9-4.7-2.6-6.5-1.6-1.8-3.8-2.8-6.3-2.8zm.1 3c1.4 0 2.6.5 3.6 1.3 1 .9 1.6 2.1 1.8 3.8h-10.8c.3-1.5.9-2.7 1.8-3.7.9-.9 2.1-1.4 3.6-1.4zm26.1 0c-1.5-2-3.6-3.1-6.3-3.1-2.5 0-4.6.9-6.3 2.7s-2.5 4.1-2.5 6.8.9 5 2.5 6.8c1.7 1.8 3.8 2.7 6.3 2.7 2.6 0 4.7-1.1 6.3-3.2v2.7h3.5V40.5h-3.5v10zm-1.7 2c1.1 1.2 1.6 2.7 1.6 4.5 0 1.7-.6 3.3-1.6 4.5-1.1 1.2-2.4 1.8-4.2 1.8-1.7 0-3.1-.6-4.2-1.8-1.1-1.2-1.7-2.7-1.7-4.5s.6-3.3 1.7-4.5c1.1-1.2 2.5-1.8 4.2-1.8 1.8.1 3.1.7 4.2 1.8zm43.5-3c-1.3-1.4-3-2.1-5.2-2.1-2.4 0-4.2.9-5.4 2.6v-9.6h-3.5v25.7h3.5l.1-10.5c0-1.5.4-2.6 1.2-3.5.8-.9 1.8-1.3 3.2-1.3 1.4 0 2.5.4 3.3 1.3.8.9 1.2 2 1.2 3.5v10.6h3.5V55c0-2.3-.6-4.1-1.9-5.5zM259.1 48h3.5v18.2h-3.5zm0-7.5h3.4v3.4h-3.4z"/></svg>