<svg xmlns="http://www.w3.org/2000/svg" viewBox="6 3.9 317.3 67.3"><path fill="#f44b34" d="M38.3 44.3l7.5-7.5v-4.6l-7.5 7.6v4.5zM41.3 22.6h-3v15l7.5-7.6v-1.8c0-2.3-.5-3.9-1.4-4.8a4.18 4.18 0 00-3.1-.8zM33.4 51.7h12.4V39l-9.1 9.3-3.3 3.4z"></path><path d="M40 3.9a33.65 33.65 0 1033.3 34v-.3A33.5 33.5 0 0040 3.9zm13.8 21.4v25.1L45.5 59H26.7l3.7-3.8V28.4l5.5-5.8h-8.2l2.9-6.7H44a9.79 9.79 0 017.1 2.6 10.05 10.05 0 012.7 6.8z" fill="#f44b34"></path><path d="M116.9 22.2c-4.5-4-10.5-6-17.8-6H87l.1 43.6v.3h13.2c7 0 12.7-2 17-6s6.5-9.3 6.5-16a20.21 20.21 0 00-6.9-15.9zm-3.2 28.6c-3.6 3.2-8.3 4.8-14.2 4.8h-7.8V20.9h7.8c5.9 0 10.6 1.6 14.2 4.8s5.2 7.3 5.2 12.5-1.7 9.5-5.2 12.6zM145.3 26a15.52 15.52 0 00-11.8 5.1 17.92 17.92 0 00-4.8 12.3 17.38 17.38 0 004.7 12.3 15.52 15.52 0 0011.8 5.1h.1a15.52 15.52 0 0011.8-5.1 17.55 17.55 0 004.7-12.3 17 17 0 00-4.8-12.3 15.31 15.31 0 00-11.7-5.1zm8.2 26.5a10.77 10.77 0 01-7.1 3.7h-1.2a11 11 0 01-8.5-3.7 13 13 0 01-3.4-9.2 12.75 12.75 0 013.4-9.1 11.06 11.06 0 018.5-3.6 10.85 10.85 0 018.4 3.6 13.11 13.11 0 013.3 9.1 13 13 0 01-3.4 9.2zM182.2 54.8a5.2 5.2 0 01-3.8 1.3c-2.9 0-4.1-1.4-4.1-4.7V31.1h9.5v-4.6h-9.5v-7.1h-4.8v7.1h-4.6v4.7h4.6v20.5c0 2.9.8 5.2 2.3 6.7a8.94 8.94 0 006.6 2.3 9.11 9.11 0 006.7-2.4l.9-.8-2.7-3.8zM215.2 31.1a15.39 15.39 0 00-3.4-2.8 15 15 0 00-8.5-2.4 15.52 15.52 0 00-11.8 5.1 17.92 17.92 0 00-4.8 12.3 17.38 17.38 0 004.7 12.3 15.52 15.52 0 0011.8 5.1 15 15 0 008.5-2.4 14.84 14.84 0 003.3-2.8V60h4.8V12.8l-4.7.4zm-3.3 21.4a11 11 0 01-7.1 3.7h-1.2a11 11 0 01-8.5-3.7 13.54 13.54 0 01-3.5-9.2 12.75 12.75 0 013.4-9.1 11.06 11.06 0 018.5-3.6 10.71 10.71 0 018.4 3.6 13.11 13.11 0 013.3 9.1 13.36 13.36 0 01-3.3 9.2zM254 31.1a17.5 17.5 0 00-3.3-2.8 15 15 0 00-8.5-2.4 15.52 15.52 0 00-11.8 5.1 17.92 17.92 0 00-4.8 12.3 17.79 17.79 0 004.7 12.4 15.52 15.52 0 0011.8 5.1 15 15 0 008.5-2.4 13.43 13.43 0 003.4-2.9v4.8h4.8V26.6H254zm-3.5 21.2a10.77 10.77 0 01-7.1 3.7h-1.2a11 11 0 01-8.5-3.7 13 13 0 01-3.4-9.2 12.75 12.75 0 013.4-9.1 11.06 11.06 0 018.5-3.6 10.85 10.85 0 018.4 3.6 13.28 13.28 0 013.3 9.1 13 13 0 01-3.4 9.2zM282 41.7l-5.7-1.8a11.51 11.51 0 01-4.3-2.1 3.42 3.42 0 01-1.4-2.9v-.1a3.53 3.53 0 011.6-3 8.1 8.1 0 015-1.4c3.4 0 5.8 1 7.4 3.1l.8 1.1L289 32l.2-.2-.7-1c-2.2-3.2-6-4.9-11.2-4.9a13.38 13.38 0 00-8.2 2.4 7.88 7.88 0 00-3.2 6.6 7.49 7.49 0 002.4 5.8 13.29 13.29 0 005.3 3l5.6 1.7a10.77 10.77 0 014.2 2.3 4.07 4.07 0 011.5 3.2 4.28 4.28 0 01-1.8 3.6 8.81 8.81 0 01-5.5 1.5 14.87 14.87 0 01-5.5-1 7 7 0 01-3.3-2.6l-.8-1.3-3.8 3.2-.1.1.8 1q4.05 5.4 12.6 5.4a13.69 13.69 0 008.6-2.6 9.09 9.09 0 003.4-7.3 8.37 8.37 0 00-2.3-6 12.27 12.27 0 00-5.2-3.2zM319.4 29.7v-.1h-.1a13.47 13.47 0 00-9.9-3.7 12.87 12.87 0 00-9 3.3V13.1h-4.8v47.1h4.8l.2-20.1a10.27 10.27 0 012.3-7.1 10 10 0 0113.2 0c1.6 1.7 2.4 4 2.4 7.1v20.1h4.8V39.5a15 15 0 00-3.9-9.8z"></path></svg>