<svg id="icon-eye" xmlns="http://www.w3.org/2000/svg" viewBox="0 0 53 59">
    <path d="M49.619,2.919A1.787,1.787,0,1,0,46.867.639l-.015.018L35.8,14.558a31.592,31.592,0,0,1,3.268,1.631Z" style="fill:#fff;fill-rule:evenodd"/><path d="M52.665,28.372a48.687,48.687,0,0,0-13.6-12.183l-2.2,2.771A45.094,45.094,0,0,1,49.042,29.4C46.331,32.69,37.173,42.756,26.6,42.756A19.652,19.652,0,0,1,19.18,41.2l-2.252,2.833A32.437,32.437,0,0,1,13.7,42.36L15.9,39.6A45.584,45.584,0,0,1,4.157,29.4C6.869,26.109,16.026,16.045,26.6,16.045a19.387,19.387,0,0,1,6.936,1.361L35.8,14.558a23.414,23.414,0,0,0-9.2-2C12.245,12.561,1,27.727.534,28.373a1.741,1.741,0,0,0,0,2.056A48.926,48.926,0,0,0,13.694,42.36L2.785,56.081a1.787,1.787,0,1,0,2.767,2.263L16.927,44.037a23.672,23.672,0,0,0,9.672,2.2c14.355,0,25.6-15.166,26.066-15.812A1.745,1.745,0,0,0,52.665,28.372Z" style="fill:#fff;fill-rule:evenodd"/><path d="M22.643,23.663a6.958,6.958,0,0,1,6.509-.744l2.231-2.8a10.442,10.442,0,0,0-12.75,16.03l2.23-2.8A6.964,6.964,0,0,1,22.643,23.663Z" style="fill:#fff;fill-rule:evenodd"/><path d="M35.637,34.648A10.456,10.456,0,0,0,34.23,22.273l-2.2,2.77a6.962,6.962,0,0,1-8.454,10.632l-2.2,2.768A10.435,10.435,0,0,0,35.637,34.648Z" style="fill:#fff;fill-rule:evenodd"/>
</svg>