<svg viewBox="0 0 17 17">
    <path d="M16.6,14.9l-4.3-4.3c0.8-1.1,1.2-2.4,1.2-3.8c0-0.9-0.2-1.8-0.5-2.6c-0.4-0.8-0.8-1.6-1.4-2.2 c-0.6-0.6-1.3-1.1-2.2-1.4C8.5,0.2,7.7,0,6.8,0C5.8,0,5,0.2,4.1,0.5C3.3,0.9,2.6,1.4,2,2C1.4,2.6,0.9,3.3,0.5,4.1S0,5.8,0,6.8 c0,0.9,0.2,1.8,0.5,2.6c0.4,0.8,0.8,1.6,1.4,2.2c0.6,0.6,1.3,1.1,2.2,1.4c0.8,0.4,1.7,0.5,2.6,0.5c1.4,0,2.7-0.4,3.8-1.2l4.3,4.3 c0.2,0.2,0.5,0.4,0.9,0.4c0.3,0,0.6-0.1,0.9-0.4c0.2-0.2,0.4-0.5,0.4-0.9C17,15.4,16.9,15.1,16.6,14.9z M9.8,9.8 c-0.8,0.8-1.9,1.3-3,1.3c-1.2,0-2.2-0.4-3-1.3c-0.8-0.8-1.3-1.9-1.3-3c0-1.2,0.4-2.2,1.3-3c0.8-0.8,1.9-1.3,3-1.3 c1.2,0,2.2,0.4,3,1.3c0.8,0.8,1.3,1.9,1.3,3C11,7.9,10.6,8.9,9.8,9.8z"/>
</svg>