<svg viewBox="0 0 212.4 212.4">
    <path d="M106.2,0A106.2,106.2,0,1,0,212.4,106.2,106.267,106.267,0,0,0,106.2,0Zm64,170.2a90.51,90.51,0,0,1-128-128,90.51,90.51,0,0,1,128,128Z"/><path d="M149.688,96.055h-7.3l0,0-25.963-.018v-26h0v-7.3c0-3.1-4.582-5.6-10.182-5.6s-10.2,2.5-10.2,5.6v7.3h0v26l-26.018-.018H62.711c-3.1,0-5.6,4.605-5.6,10.2s2.5,10.176,5.6,10.176h33.3v25.954h-.01v7.3c0,3.1,4.605,5.6,10.211,5.6s10.211-2.5,10.211-5.6v-7.3h-.011l-.018-25.913h33.286c3.1,0,5.6-4.621,5.6-10.221S152.788,96.055,149.688,96.055Z"/>
</svg>