<svg width="30" height="29" viewBox="0 0 30 29" fill="none" xmlns="http://www.w3.org/2000/svg">
    <path d="M13.2522 4.38081C14.077 2.92054 16.1389 2.92054 16.9637 4.38081L26.7065 21.6302C27.5313 23.0905 26.5003 24.9158 24.8507 24.9158H5.36517C3.7156 24.9158 2.68462 23.0905 3.5094 21.6302L13.2522 4.38081Z" fill="white" />
    <path fill-rule="evenodd" clip-rule="evenodd" d="M19.6063 2.76459L29.2795 20.1815C31.3267 23.8676 28.7677 28.4753 24.6732 28.4753H5.32681C1.23233 28.4753 -1.32671 23.8676 0.720529 20.1815L10.3937 2.76459C12.441 -0.921533 17.559 -0.921526 19.6063 2.76459ZM16.8425 4.42334C16.0236 2.94889 13.9764 2.94889 13.1575 4.42334L3.4843 21.8402C2.6654 23.3147 3.68902 25.1577 5.32681 25.1577H24.6732C26.311 25.1577 27.3346 23.3147 26.5157 21.8402L16.8425 4.42334Z" fill="#CC0000" />
    <path d="M13.8863 18.8426L12.8572 11.2V7.66641H17.1429V11.2L16.1279 18.8426H13.8863ZM13.0264 22.9992V20.1106H16.9878V22.9992H13.0264Z" fill="#222222" />
</svg>
