<svg id="icon-edit" viewBox="0 0 21 21" xmlns="http://www.w3.org/2000/svg">
    <path d="M20.1562 19.3125H0.84375C0.609375 19.3125 0.40625 19.3906 0.234375 19.5469C0.078125 19.7188 0 19.9219 0 20.1562C0 20.3906 0.078125 20.5859 0.234375 20.7422C0.40625 20.9141 0.609375 21 0.84375 21H20.1562C20.3906 21 20.5859 20.9141 20.7422 20.7422C20.9141 20.5859 21 20.3906 21 20.1562C21 19.9219 20.9141 19.7188 20.7422 19.5469C20.5859 19.3906 20.3906 19.3125 20.1562 19.3125ZM5.4375 16.5469L10.9688 14.2031C11.0469 14.1719 11.125 14.125 11.2031 14.0625L20.5078 4.73438C20.8359 4.40625 21 4.00781 21 3.53906C21 3.07031 20.8359 2.67188 20.5078 2.34375L18.6562 0.492188C18.3281 0.164062 17.9297 0 17.4609 0C16.9922 0 16.5938 0.164062 16.2656 0.492188L6.96094 9.79688C6.88281 9.875 6.82812 9.96094 6.79688 10.0547L4.45312 15.5625C4.32812 15.875 4.38281 16.1484 4.61719 16.3828C4.85156 16.6172 5.125 16.6719 5.4375 16.5469ZM17.4609 1.6875L19.3125 3.53906L17.8594 4.99219L16.0078 3.14062L17.4609 1.6875ZM8.27344 10.875L14.8125 4.33594L16.6641 6.1875L10.125 12.7266L6.91406 14.0859L8.27344 10.875Z"/>
</svg>
