<svg xmlns="http://www.w3.org/2000/svg" viewBox="0 0 1844.78 473.02"><circle cx="226.68" cy="236.51" r="215.01" fill="#f44b34"/><path d="M294.28,113.13c-10.59-11-25.25-16.29-44-16.29-57.42-.41-77.78-.41-83.07-.41l-17.92,43.16h50.9L166,176.65V308.59l-.41.4.41.41v41.94L143.2,376.18H259.26l51.3-55.38v-1.63h0V157.51C310.56,157.1,311,131,294.28,113.13Zm-33,123.38-46.42,48.87V258.5l46.42-48.87Zm-46.42-96.92H233.6c5.7,0,13.44-.4,19.55,5.71s8.55,15.88,8.55,30.94v22.4L215.28,247.5ZM184.33,329.35,205.1,307l56.19-59.86v82.25Z" fill="#fff"/><rect x="607.76" y="117.45" width="57.86" height="36.97" transform="translate(90.37 490.02) rotate(-45)" fill="#009ad9"/><polygon points="737.27 277.42 737.27 277.42 737.27 277.42 763.41 303.56 804.32 262.65 778.18 236.51 737.27 277.42" fill="#009ad9"/><path d="M717.28,81.48a28.93,28.93,0,1,1,40.91,40.91l-20.92,20.92,26.14,26.15,20.93-20.92h0c12.85-12.86,31.06-9.85,40.91,0,12.38,12.39,10.18,30.72,0,40.9l-20.94,20.93,26.14,26.14,20.93-20.92A65.91,65.91,0,0,0,803.61,103.1a65.39,65.39,0,0,0-19.27-47.76c-24.74-24.74-66.59-26.62-93.2,0L670.21,76.27l26.15,26.14Z" fill="#009ad9"/><polygon points="670.22 210.37 696.36 236.51 696.36 236.51 696.36 236.51 737.27 195.6 711.13 169.46 711.13 169.46 711.13 169.45 670.22 210.37 670.22 210.37 670.22 210.37" fill="#009ad9"/><polygon points="603.16 329.7 603.16 329.7 603.16 329.7 644.07 370.62 670.22 344.47 629.31 303.56 603.16 329.7" fill="#6ebd44"/><path d="M830.46,236.51l-26.14,26.14,20.93,20.93c10.19,10.19,12.39,28.51,0,40.9-9.86,9.86-28.06,12.87-40.91,0h0l-20.93-20.93L737.27,329.7l20.92,20.92a28.93,28.93,0,1,1-40.91,40.92l-20.92-20.93-26.15,26.14,20.93,20.93c26.61,26.62,68.46,24.74,93.2,0a65.43,65.43,0,0,0,19.27-47.77,65.89,65.89,0,0,0,47.78-112.47Z" fill="#6ebd44"/><polygon points="670.22 262.66 711.13 303.56 711.13 303.56 711.13 303.56 737.27 277.42 696.36 236.51 670.22 262.66" fill="#6ebd44"/><polygon points="763.41 169.46 737.27 195.6 778.18 236.51 804.32 210.37 763.41 169.46 763.41 169.46 763.41 169.46" fill="#6ebd44"/><rect x="674.81" y="318.6" width="57.86" height="36.97" transform="translate(-32.24 596.33) rotate(-45)" fill="#f68f1e"/><path d="M623.14,391.54c-10.19,10.19-28.51,12.39-40.9,0-9.85-9.85-12.87-28.05,0-40.9v0l20.92-20.92L577,303.56h0l-20.93,20.92a28.93,28.93,0,1,1-40.91-40.91l20.92-20.92L510,236.51,489,257.44c-26.62,26.6-24.74,68.45,0,93.18a65.42,65.42,0,0,0,47.77,19.28,65.89,65.89,0,0,0,112.47,47.78l20.93-20.93-26.14-26.13Z" fill="#f68f1e"/><polygon points="644.07 236.51 644.07 236.51 603.16 277.42 629.3 303.56 670.22 262.65 644.07 236.51 644.07 236.51" fill="#f68f1e"/><polygon points="577.02 169.46 577.02 169.46 577.02 169.46 536.11 210.37 562.25 236.51 603.16 195.6 577.02 169.46" fill="#f68f1e"/><polygon points="603.16 277.42 603.16 277.42 603.16 277.42 562.25 236.51 536.1 262.65 577.02 303.56 603.16 277.42" fill="#ec174c"/><path d="M515.18,189.45a28.93,28.93,0,0,1,40.92-40.91L577,169.46l26.14-26.15-20.92-20.92h0c-12.85-12.85-9.84-31,0-40.91,12.39-12.38,30.72-10.18,40.9,0l20.94,20.93,26.13-26.13L649.29,55.34a65.9,65.9,0,0,0-112.48,47.77A65.47,65.47,0,0,0,489,122.39c-24.73,24.74-26.61,66.58,0,93.2L510,236.51l26.15-26.14Z" fill="#ec174c"/><rect x="685.26" y="107" width="36.96" height="57.85" transform="translate(110.01 537.44) rotate(-45)" fill="#ec174c"/><polygon points="644.07 236.51 670.22 210.37 629.31 169.46 603.16 195.6 603.16 195.6 603.16 195.6 644.07 236.51 644.07 236.51 644.07 236.51" fill="#ec174c"/><rect x="651.73" y="83.92" width="36.96" height="36.97" transform="translate(123.89 503.91) rotate(-45)" fill="#573357"/><rect x="517.62" y="218.02" width="36.97" height="36.97" transform="translate(-10.2 448.39) rotate(-45)" fill="#be272d"/><rect x="785.84" y="218.03" width="36.97" height="36.97" transform="translate(68.34 638.01) rotate(-45)" fill="#008e4c"/><rect x="651.73" y="352.13" width="36.97" height="36.97" transform="translate(-65.77 582.43) rotate(-45)" fill="#7a773e"/><rect x="718.79" y="150.97" width="36.96" height="36.97" transform="translate(96.11 570.95) rotate(-45)" fill="#443639"/><rect x="584.68" y="285.07" width="36.97" height="36.97" transform="translate(-37.99 515.41) rotate(-45)" fill="#803136"/><rect x="584.68" y="150.98" width="36.97" height="36.97" transform="translate(56.81 476.09) rotate(-45)" fill="#593438"/><rect x="651.73" y="218.03" width="36.97" height="36.97" transform="translate(29.06 543.19) rotate(-45)" fill="#443639"/><rect x="718.79" y="285.08" width="36.97" height="36.97" transform="translate(1.28 610.21) rotate(-45)" fill="#2a6442"/><path d="M1047.5,85.47c-15.51-13.66-35.81-20.59-60.35-20.59H941.67l.23,147.78V213h47.56c23.92,0,43.69-6.93,58.73-20.59s22.69-31.65,22.69-53.46S1063,99.13,1047.5,85.47Zm.39,53.46c0,16.19-5.55,29.37-16.48,39.16s-25.6,14.67-43.8,14.67H963.74V85.11h23.87c18.2,0,32.94,4.93,43.8,14.66S1047.89,122.74,1047.89,138.93Z" fill="#fff"/><path d="M1139.68,99.44c-15.83,0-29.32,5.7-40.09,16.92a57.7,57.7,0,0,0-16.45,41.23c0,16.14,5.54,30.09,16.45,41.47a53.68,53.68,0,0,0,40.09,17.15h.32v-.47c15.85-.07,29.31-5.76,40-16.91a57.67,57.67,0,0,0,16.45-41.24A57.66,57.66,0,0,0,1180,116.36C1169.24,105.14,1155.67,99.44,1139.68,99.44Zm25.57,85.82a32.37,32.37,0,0,1-11.3,8.42,34.79,34.79,0,0,1-14,2.76c-10.36,0-18.72-3.66-25.57-11.18s-10.28-16.74-10.28-27.43,3.46-19.93,10.28-27.2,15.28-11,25.57-11,18.75,3.68,25.34,11,10.06,16.52,10.06,27.21A40.33,40.33,0,0,1,1165.25,185.26Z" fill="#fff"/><path d="M1271.46,190.56c-3.35,3.8-8,5.65-14.27,5.65-10,0-14.89-5.62-14.89-17.19v-58h31.11V102.21h-31.34V74.79h-20.91v27.42h-18.45l.72,18.61h18.19v58.66c0,11.7,3,20.84,8.84,27.18s13.79,9.32,24.42,9.32c11.25,0,20.17-3.21,26.5-9.54l.18-.18-9.81-16Z" fill="#fff"/><path d="M1510.37,117.9c-9.2-12.4-22.11-18.69-38.39-18.69-15.38,0-28.33,5.62-38.48,16.7s-15.29,25-15.29,41.45c0,16.68,5.22,30.71,15.52,41.7S1457,215.75,1472,215.75c16.06,0,29-6.52,38.39-19.38V213h21.15V102h-21.15Zm-10.06,12.26c6.68,7.36,10.06,16.52,10.06,27.2a40.29,40.29,0,0,1-10.06,27.44,32.42,32.42,0,0,1-11.29,8.42,34.83,34.83,0,0,1-14,2.76c-10.36,0-18.73-3.66-25.57-11.18s-10.29-16.74-10.29-27.44,3.46-19.92,10.29-27.19,15.27-11,25.57-11S1493.73,122.89,1500.31,130.16Z" fill="#fff"/><path d="M1612.87,153.61a191.64,191.64,0,0,0-18.69-5.77,55.56,55.56,0,0,1-15.81-6.41c-4.21-2.67-6.28-6-6.3-10.26l.43-.85,0-.14a11.49,11.49,0,0,1,5.39-9.88c3.73-2.56,8.63-3.86,14.57-3.86,12.28,0,21.46,4.11,28.08,12.55l.23.29,12.65-12.66-.15-.22c-8.15-11.4-22-17.19-41.28-17.19-12.23,0-22.06,3.05-29.23,9.06-7.36,6.18-10.94,13.34-10.94,21.91,0,7.37,2.13,13.32,6.53,18.18a39.62,39.62,0,0,0,16,10.69c6.67,2.47,12.63,4.5,18.22,6.22a56.14,56.14,0,0,1,15.35,7.1c4.25,2.91,6.31,6.52,6.31,11a14.18,14.18,0,0,1-5.41,11.5c-3.51,2.86-8.72,4.31-15.46,4.31-14.26,0-25.49-4.92-33.39-14.63l-.24-.29-12.41,13.84.17.22c9.69,12,24.66,18.09,44.48,18.09,13.9,0,24.36-3,32-9.29s11.41-14.13,11.41-24c0-7.84-2.14-14-6.53-18.88A39.57,39.57,0,0,0,1612.87,153.61Z" fill="#fff"/><path d="M1706.3,99c-14.56,0-25.61,5.26-32.85,15.64v-61H1652.3V212.75h21.14l.47-64.37c0-8.93,2.45-16.15,7.29-21.44s11.22-7.73,19.81-7.73c8.36,0,14.91,2.6,20,8s7.51,12.35,7.51,21.21V213h21.15V145.15c0-14.19-3.87-25.19-11.84-33.62S1719.58,99,1706.3,99Z" fill="#fff"/><path d="M1378.42,117.9c-9.2-12.4-22.11-18.69-38.38-18.69-15.39,0-28.33,5.62-38.49,16.7s-15.29,25-15.29,41.45c0,16.68,5.23,30.71,15.53,41.7S1325,215.75,1340,215.75c16,0,29-6.52,38.38-19.38V213h21.15V53.82h-21.15Zm-10.05,12.26c6.67,7.36,10.05,16.52,10.05,27.2a40.33,40.33,0,0,1-10.05,27.44c-6.62,7.52-14.9,11.18-25.34,11.18s-18.72-3.66-25.57-11.18-10.28-16.74-10.28-27.44,3.46-19.92,10.28-27.19,15.28-11,25.57-11S1361.78,122.89,1368.37,130.16Z" fill="#fff"/><path d="M1674.75,255.23h-22.63V375.16c0,14.85,4.34,25.63,12.9,32,7.61,5.66,19.5,8.65,35.35,8.9h.33v-19h-.32c-7.61-.2-13.27-1.44-16.82-3.68-5.85-3.76-8.81-10.78-8.81-20.89V321.59h26V302.75h-26Z" fill="#fff"/><path d="M1071.1,299.37c-8.79,0-16.5,2.17-22.92,6.45a41.78,41.78,0,0,0-14.27,16.34C1026.44,307,1014,299.61,996,299.61c-14.11,0-25,5.48-32.36,16.29V302.45H941.9V416.58h21.74l1-66.89c0-9.41,2.3-16.62,7-22.06s11.08-7.94,19.66-7.94c8.08,0,14.69,2.75,19.65,8.19s7.26,12.48,7.26,21.81v66.42h21.51V349.69c0-9.33,2.37-16.47,7.25-21.81,5-5.51,11.54-8.19,19.9-8.19,8.16,0,14.69,2.75,19.41,8.18s7,12.7,7,21.82v66.42H1115V346.37c0-14.39-4-25.94-11.94-34.34S1084.4,299.37,1071.1,299.37Z" fill="#fff"/><path d="M1189.7,299.37c-16,0-29.44,5.86-40,17.4-10.74,11.7-16.19,26-16.19,42.39,0,16.83,5.77,31.26,17.15,42.87s25.73,17.4,42.88,17.4h.53l-.24-.48a67.81,67.81,0,0,0,24.47-4.52,51.47,51.47,0,0,0,18.83-12.16l.19-.21-11.53-15-.27.27c-8.26,8.26-18.87,12.46-31.51,12.46-10.59,0-19.2-3.23-26.31-9.87a39.74,39.74,0,0,1-12.41-25h89.9l.07-.24a30.23,30.23,0,0,0,.72-7.67c0-16-5.45-29.75-16.2-41C1219.13,305,1205.66,299.37,1189.7,299.37Zm.71,18.9c8.87,0,16.45,2.84,22.52,8.44s9.74,13.25,11.44,23.59h-67.92c1.69-9.55,5.44-17.12,11.45-23.12a30.7,30.7,0,0,1,22.18-9.15v.24Z" fill="#fff"/><path d="M1331.43,304.18c-4.07-3.35-9.87-5.05-17.26-5.05-11.8,0-21.24,5.46-28.1,16.23V302h-21.74V416.11h21.74l-.47-65.71c0-9.55,2-17.06,5.85-22.31a19.1,19.1,0,0,1,16.09-8.16,25.25,25.25,0,0,1,14.73,4.44l.33.23,9-20.26Z" fill="#fff"/><path d="M1387.87,299.37c-16,0-29.44,5.86-40,17.4-10.75,11.7-16.2,26-16.2,42.39,0,16.83,5.77,31.26,17.15,42.87s25.73,17.4,42.88,17.4h.53L1392,419a67.8,67.8,0,0,0,24.46-4.52,51.31,51.31,0,0,0,18.83-12.16l.2-.21-11.54-15-.26.27c-8.27,8.26-18.87,12.46-31.52,12.46-10.59,0-19.19-3.23-26.3-9.87a39.7,39.7,0,0,1-12.41-25h89.9l.06-.24a30.14,30.14,0,0,0,.73-7.67c0-16-5.45-29.75-16.2-41S1403.84,299.37,1387.87,299.37Zm.71,18.9c8.88,0,16.45,2.84,22.52,8.44s9.74,13.25,11.44,23.59h-67.92c1.7-9.55,5.44-17.12,11.45-23.12a30.7,30.7,0,0,1,22.18-9.15v.24Z" fill="#fff"/><path d="M1552.36,318.35c-9.46-12.75-22.74-19.22-39.47-19.22-15.82,0-29.13,5.78-39.57,17.17S1457.6,342,1457.6,358.92c0,17.15,5.37,31.57,16,42.87S1497.47,419,1512.89,419c16.51,0,29.78-6.7,39.47-19.92v17.08h21.74v-161h-21.74ZM1542,331c6.86,7.58,10.34,17,10.34,28A41.51,41.51,0,0,1,1542,387.14c-6.8,7.73-15.32,11.49-26,11.49s-19.26-3.76-26.29-11.5-10.58-17.21-10.58-28.21,3.56-20.48,10.57-28,15.71-11.27,26.3-11.27S1535.25,323.48,1542,331Z" fill="#fff"/><path d="M1814.89,311.79c-8.2-8.67-18.82-12.89-32.46-12.89-15,0-26.34,5.4-33.79,16.07V254.86H1726.9v161h21.74l.48-66.18c0-9.19,2.52-16.6,7.49-22.05s11.55-7.95,20.37-7.95c8.48,0,15.41,2.76,20.61,8.19s7.73,12.7,7.73,21.81v66.42h21.74V346.37C1827.06,331.77,1823.08,320.46,1814.89,311.79Z" fill="#fff"/><rect x="1603.76" y="301.98" width="21.74" height="114.13" fill="#fff"/><rect x="1603.87" y="255.2" width="21.53" height="21.53" fill="#fff"/></svg>